<?xml version="1.0" encoding="UTF-8"?>
<svg width="700pt" height="700pt" version="1.1" viewBox="0 0 700 700" xmlns="http://www.w3.org/2000/svg" xmlns:xlink="http://www.w3.org/1999/xlink">
 <defs>
 </defs>
 <g>
  <path fill="#f5f5f5" d="m283.81 311.3c-79.016 0-146.61 56.391-146.61 132.27v40.879h425.6v-40.879c0-75.879-67.594-132.27-146.61-132.27v-0.054688c-10.473 0-15.176-13.273-6.9453-19.824 82.602-66.023 41.945-215.88-59.246-215.88-79.238 0-127.18 96.434-91.84 173.49 17.641 38.586 36.848 38.809 36.848 51.07 0 6.2148-5.0391 11.199-11.199 11.199z"/>
  <use x="70" y="560.839844" xlink:href="#u"/>
  <use x="70.207031" y="560.839844" xlink:href="#d"/>
  <use x="70.34375" y="560.839844" xlink:href="#a"/>
  <use x="70.535156" y="560.839844" xlink:href="#b"/>
  <use x="70.722656" y="560.839844" xlink:href="#c"/>
  <use x="70.855469" y="560.839844" xlink:href="#a"/>
  <use x="71.046875" y="560.839844" xlink:href="#l"/>
  <use x="71.34375" y="560.839844" xlink:href="#k"/>
  <use x="71.542969" y="560.839844" xlink:href="#f"/>
  <use x="71.824219" y="560.839844" xlink:href="#j"/>
  <use x="71.921875" y="560.839844" xlink:href="#a"/>
  <use x="72.109375" y="560.839844" xlink:href="#t"/>
  <use x="72.289062" y="560.839844" xlink:href="#b"/>
  <use x="72.480469" y="560.839844" xlink:href="#i"/>
  <use x="72.644531" y="560.839844" xlink:href="#b"/>
  <use x="72.835938" y="560.839844" xlink:href="#h"/>
  <use x="73.035156" y="560.839844" xlink:href="#f"/>
  <use x="73.214844" y="560.839844" xlink:href="#b"/>
  <use x="73.40625" y="560.839844" xlink:href="#g"/>
  <use x="73.605469" y="560.839844" xlink:href="#s"/>
  <use x="70" y="561.121094" xlink:href="#r"/>
  <use x="70.121094" y="561.121094" xlink:href="#d"/>
  <use x="70.261719" y="561.121094" xlink:href="#e"/>
  <use x="70.453125" y="561.121094" xlink:href="#q"/>
  <use x="70.839844" y="561.121094" xlink:href="#c"/>
  <use x="70.976562" y="561.121094" xlink:href="#h"/>
  <use x="71.175781" y="561.121094" xlink:href="#a"/>
  <use x="71.460938" y="561.121094" xlink:href="#p"/>
  <use x="71.695312" y="561.121094" xlink:href="#e"/>
  <use x="71.890625" y="561.121094" xlink:href="#o"/>
  <use x="72.089844" y="561.121094" xlink:href="#g"/>
  <use x="72.386719" y="561.121094" xlink:href="#n"/>
  <use x="72.589844" y="561.121094" xlink:href="#d"/>
  <use x="72.726562" y="561.121094" xlink:href="#e"/>
  <use x="72.921875" y="561.121094" xlink:href="#m"/>
  <use x="73.015625" y="561.121094" xlink:href="#a"/>
  <use x="73.207031" y="561.121094" xlink:href="#i"/>
  <use x="73.371094" y="561.121094" xlink:href="#c"/>
 </g>
</svg>
